<svg width="614" height="621" viewBox="0 0 614 621" fill="none" xmlns="http://www.w3.org/2000/svg">
<path fill-rule="evenodd" clip-rule="evenodd" d="M423.008 22.8878C387.306 8.1317 348.241 0 307.3 0C138.025 0 0.799805 139.016 0.799805 310.5C0.799805 393.561 32.9946 469.006 85.4322 524.724L375.48 355.079L418.498 430.56L159.032 582.318C202.97 606.967 253.517 621 307.3 621C476.575 621 613.8 481.984 613.8 310.5C613.8 216.117 572.231 131.569 506.627 74.6218L237.825 231.84L194.808 156.359L423.008 22.8878ZM467.538 248.401L156.092 430.561L113.075 355.079L424.52 172.919L467.538 248.401Z" fill="black"/>
</svg>
