<svg width="178" height="36" viewBox="0 0 178 36" fill="none" xmlns="http://www.w3.org/2000/svg">
<path fill-rule="evenodd" clip-rule="evenodd" d="M25.1372 1.32683C23.0116 0.471403 20.6857 0 18.2482 0C8.17001 0 0 8.05888 0 18C0 22.8152 1.91679 27.1888 5.03879 30.4188L22.3075 20.5843L24.8686 24.96L9.42075 33.7576C12.0367 35.1865 15.0461 36 18.2482 36C28.3264 36 36.4964 27.9411 36.4964 18C36.4964 12.5285 34.0215 7.6272 30.1156 4.3259L14.1119 13.44L11.5507 9.06429L25.1372 1.32683ZM27.7884 14.4001L9.24569 24.9601L6.68454 20.5843L25.2272 10.0243L27.7884 14.4001Z" fill="black"/>
<path d="M44.9102 21.0163C44.9102 15.9523 48.7301 12.2563 54.0343 12.2563C56.151 12.2563 58.0002 12.8563 59.5087 13.8883V17.8243H59.0464C57.5379 15.9043 55.4941 15.3523 54.0343 15.3523C50.9929 15.3523 48.7788 17.7523 48.7788 21.0163C48.7788 24.2803 50.9929 26.6803 54.2776 26.6803C55.2508 26.6803 55.9807 26.5843 56.662 26.2723V20.6083H60.5063V28.1443C59.2654 28.9363 56.6377 29.7763 54.0099 29.7763C48.7301 29.7763 44.9102 26.0803 44.9102 21.0163ZM77.4118 18.1123C77.4118 20.8483 75.4897 22.9363 72.6673 23.4643L73.1539 24.0643C74.0785 25.2403 75.2464 26.1763 76.3169 26.1763C76.5359 26.1763 76.6575 26.0803 76.8035 25.9363H77.2658V29.3923C73.9325 29.3923 72.278 29.1043 69.8692 26.0563L66.8765 22.2403V29.3683H63.0567V12.6643H70.8181C74.6381 12.6643 77.4118 14.9683 77.4118 18.1123ZM66.8765 16.0003C66.8765 18.1123 68.5797 20.4883 71.0614 20.4883C72.5213 20.4883 73.5675 19.5043 73.5675 18.1123C73.5675 16.7443 72.424 15.7603 70.8181 15.7603H66.8765V16.0003ZM79.8315 12.6643H92.4835V15.7603H83.6514C83.6514 17.9683 86.2062 19.1203 91.4616 19.1203V22.2163C88.4446 22.2163 85.6709 21.8083 83.6514 20.4643V26.2723H92.4835V29.3923H79.8315V12.6643ZM94.9198 12.6643H107.572V15.7603H98.7398C98.7398 17.9683 101.295 19.1203 106.55 19.1203V22.2163C103.533 22.2163 100.759 21.8083 98.7398 20.4643V26.2723H107.572V29.3923H94.9198V12.6643ZM113.828 12.6643C115.044 13.9843 118.158 16.8163 120.519 20.4883V12.6643H124.363V29.3923H120.519C120.519 25.0003 117.137 20.6083 113.828 17.0803V29.3923H110.008V12.6643H113.828ZM127.306 29.3923V12.6643H131.126V26.2723H138.255V29.3923H127.306ZM139.899 12.6643H143.719V29.3923H139.899V12.6643ZM150.49 12.6643C151.707 13.9843 154.821 16.8163 157.181 20.4883V12.6643H161.026V29.3923H157.181C157.181 25.0003 153.799 20.6083 150.49 17.0803V29.3923H146.67V12.6643H150.49ZM163.968 12.6643H176.621V15.7603H167.788C167.788 17.9683 170.343 19.1203 175.599 19.1203V22.2163C172.582 22.2163 169.808 21.8083 167.788 20.4643V26.2723H176.621V29.3923H163.968V12.6643Z" fill="black"/>
</svg>
